Coordinates
version=1
nRows=7
nColumns=63
inDegrees=yes

Units are S.I. units (second, meters, Newtons, ...)
If the header above contains a line with 'inDegrees', this indicates whether rotational values are in degrees (yes) or radians (no).

endheader
time	pelvis_tilt	pelvis_list	pelvis_rotation	pelvis_tx	pelvis_ty	pelvis_tz	hip_flexion_r	hip_adduction_r	hip_rotation_r	knee_angle_r	knee_angle_r_beta	ankle_angle_r	subtalar_angle_r	mtp_angle_r	hip_flexion_l	hip_adduction_l	hip_rotation_l	knee_angle_l	knee_angle_l_beta	ankle_angle_l	subtalar_angle_l	mtp_angle_l	L5_S1_Flex_Ext	L5_S1_Lat_Bending	L5_S1_axial_rotation	L4_L5_Flex_Ext	L4_L5_Lat_Bending	L4_L5_axial_rotation	L3_L4_Flex_Ext	L3_L4_Lat_Bending	L3_L4_axial_rotation	L2_L3_Flex_Ext	L2_L3_Lat_Bending	L2_L3_axial_rotation	L1_L2_Flex_Ext	L1_L2_Lat_Bending	L1_L2_axial_rotation	L1_T12_Flex_Ext	L1_T12_Lat_Bending	L1_T12_axial_rotation	Abs_r3	Abs_r2	Abs_r1	Abs_t1	Abs_t2	neck_flexion	neck_bending	neck_rotation	arm_flex_r	arm_add_r	arm_rot_r	elbow_flex_r	pro_sup_r	wrist_flex_r	wrist_dev_r	arm_flex_l	arm_add_l	arm_rot_l	elbow_flex_l	pro_sup_l	wrist_flex_l	wrist_dev_l
      4.86666667	      4.62840289	     -1.63530550	    176.49163945	      2.42592235	      0.89054024	      0.52583476	      7.68192239	      0.80533520	     -0.57880371	     12.73192535	      0.22221402	     18.21057258	    -17.60095066	      0.00000000	      8.57270914	      1.10820231	     -2.41222954	     16.62233101	      0.29011441	     14.90542753	    -18.26869608	      0.00000000	      0.00032505	     -0.23242369	     -0.65518584	      0.00060366	     -0.30912351	     -0.69613496	      0.00053403	     -0.56511497	     -0.69613496	      0.00037150	     -0.56511497	     -0.57328761	      0.00030184	     -0.47395839	     -0.53233850	      0.00018574	     -0.36002430	     -0.49138938	      0.00232182	     -2.62922330	     -3.64394709	      0.00000000	      0.00000000	     -0.00000000	      0.00000000	      0.00000000	     -3.74701683	     -6.43802552	     17.00505872	     20.12479506	     53.30182759	      0.00000000	      5.00000014	     -6.72914390	    -11.69029941	     36.90763630	     18.91127840	     56.21727554	      0.00000000	      5.00000014
      4.90000000	      4.72749422	     -1.45115652	    176.38832652	      2.42587299	      0.89037979	      0.52575414	      8.25037363	      0.93860864	     -0.81507776	     13.75884043	      0.24013707	     18.53288887	    -17.35893444	      0.00000000	      8.72059571	      0.87360126	     -2.24034139	     16.95186125	      0.29586579	     15.09494527	    -18.28685817	      0.00000000	      0.00075960	     -0.21896500	     -0.68999827	      0.00141065	     -0.29122346	     -0.73312316	      0.00124794	     -0.53239151	     -0.73312316	      0.00086814	     -0.53239151	     -0.60374849	      0.00070536	     -0.44651344	     -0.56062359	      0.00043403	     -0.33917679	     -0.51749870	      0.00542572	     -2.47697592	     -3.83756337	      0.00000000	      0.00000000	     -0.00000000	      0.00000000	      0.00000000	     -3.52729507	     -6.68212098	     17.65266809	     20.08337210	     53.26574772	      0.00000000	      5.00000014	     -6.99377042	    -11.67726604	     36.64313887	     19.03733810	     55.77110486	      0.00000000	      5.00000014
      4.93333333	      4.80313595	     -1.28773320	    176.27837308	      2.42604272	      0.89026641	      0.52557760	      8.82908937	      1.06119616	     -0.80551997	     14.80183422	      0.25834074	     18.83805641	    -17.24348162	      0.00000000	      8.83871000	      0.65816039	     -2.10859321	     17.11334906	      0.29868429	     15.43210937	    -18.26127604	      0.00000000	      0.00032976	     -0.21253457	     -0.72887757	      0.00061240	     -0.28267098	     -0.77443242	      0.00054177	     -0.51675656	     -0.77443242	      0.00037689	     -0.51675656	     -0.63776788	      0.00030622	     -0.43340050	     -0.59221303	      0.00018843	     -0.32921605	     -0.54665818	      0.00235547	     -2.40423359	     -4.05379840	      0.00000000	      0.00000000	     -0.00000000	      0.00000000	      0.00000000	     -1.53856412	     -9.01229427	     34.33781802	     19.38109144	     59.81718900	      0.00000000	      5.00000014	     -7.60287357	    -11.33049849	     32.84242553	     19.29998572	     55.75127427	      0.00000000	      5.00000014
      4.96666667	      4.86860696	     -1.28922658	    176.33182225	      2.42607679	      0.89017959	      0.52530506	      9.19765804	      1.03248132	     -0.81152462	     15.42991114	      0.26930275	     19.07896590	    -17.25990373	      0.00000000	      8.83984196	      0.64627688	     -1.71506052	     16.91122946	      0.29515663	     15.73240440	    -18.36634602	      0.00000000	      0.00083909	     -0.21932682	     -0.74925102	      0.00155827	     -0.29170467	     -0.79607921	      0.00137853	     -0.53327122	     -0.79607921	      0.00095899	     -0.53327122	     -0.65559464	      0.00077918	     -0.44725125	     -0.60876645	      0.00047945	     -0.33973724	     -0.56193826	      0.00599351	     -2.48106882	     -4.16710939	      0.00000000	      0.00000000	     -0.00000000	      0.00000000	      0.00000000	     -1.06860137	     -9.57881114	     38.19507383	     19.55617681	     60.38635655	      0.00000000	      5.00000014	     -7.78339005	    -11.47772207	     32.46551769	     19.63167822	     55.42761538	      0.00000000	      5.00000014
      5.00000000	      4.88674677	     -1.24393125	    176.52998368	      2.42624743	      0.89016995	      0.52546686	      9.30421324	      0.98888533	     -1.27247677	     15.60139809	      0.27229576	     19.22897908	    -16.84797568	      0.00000000	      8.94261697	      0.59654282	     -1.33465931	     16.90188939	      0.29499362	     16.13439445	    -18.46580415	      0.00000000	      0.00030251	     -0.21803451	     -0.80094844	      0.00056179	     -0.28998589	     -0.85100772	      0.00049699	     -0.53012910	     -0.85100772	      0.00034574	     -0.53012910	     -0.70082989	      0.00028091	     -0.44461596	     -0.65077061	      0.00017285	     -0.33773545	     -0.60071133	      0.00216079	     -2.46644994	     -4.45463494	      0.00000000	      0.00000000	     -0.00000000	      0.00000000	      0.00000000	      0.70944925	    -10.83007617	     50.81722059	     19.33977528	     62.35815570	      0.00000000	      5.00000014	     -7.83984159	    -11.44774900	     32.28160339	     19.60981693	     55.06117096	      0.00000000	      5.00000014
      5.03333333	      4.89479505	     -1.35248869	    176.61581410	      2.42631115	      0.89015295	      0.52542684	      9.28596451	      0.87656363	     -1.29662015	     15.50858448	      0.27067586	     19.24723840	    -16.92883442	      0.00000000	      8.88336094	      0.68874777	     -1.34276530	     16.53274868	      0.28855090	     16.37360949	    -18.53801875	      0.00000000	      0.00030103	     -0.23251701	     -0.80783808	      0.00055905	     -0.30924762	     -0.85832796	      0.00049457	     -0.56534185	     -0.85832796	      0.00034405	     -0.56534185	     -0.70685832	      0.00027954	     -0.47414868	     -0.65636844	      0.00017201	     -0.36016885	     -0.60587856	      0.00215025	     -2.63027890	     -4.49295304	      0.00000000	      0.00000000	     -0.00000000	      0.00000000	      0.00000000	      0.62205251	    -10.73204849	     50.85792517	     19.32481649	     60.32107019	      0.00000000	      5.00000014	     -7.89524932	    -11.51735226	     32.10271570	     19.73885192	     54.13104066	      0.00000000	      5.00000014
      5.06666667	      4.87639615	     -1.50858495	    176.56334419	      2.42637645	      0.89019705	      0.52543943	      9.13668652	      0.75498837	     -1.13861189	     15.18283603	      0.26499048	     19.14745690	    -17.12064100	      0.00000000	      8.85681004	      0.80551441	     -1.86589937	     16.26726194	      0.28391728	     16.42558861	    -18.58471260	      0.00000000	      0.00073891	     -0.25080418	     -0.78703264	      0.00137223	     -0.33356956	     -0.83622218	      0.00121396	     -0.60980529	     -0.83622218	      0.00084450	     -0.60980529	     -0.68865356	      0.00068615	     -0.51143989	     -0.63946402	      0.00042221	     -0.38849568	     -0.59027448	      0.00527796	     -2.83714709	     -4.37723942	      0.00000000	      0.00000000	     -0.00000000	      0.00000000	      0.00000000	     -0.30409188	     -9.84441348	     44.95061046	     19.02455527	     55.82573920	      0.00000000	      5.00000014	     -7.75305938	    -11.59346924	     32.52351623	     19.61750394	     54.47418338	      0.00000000	      5.00000014
